<?xml version="1.0" encoding="UTF-8" standalone="no"?>
<svg
   xmlns:dc="http://purl.org/dc/elements/1.1/"
   xmlns:cc="http://creativecommons.org/ns#"
   xmlns:rdf="http://www.w3.org/1999/02/22-rdf-syntax-ns#"
   xmlns:svg="http://www.w3.org/2000/svg"
   xmlns="http://www.w3.org/2000/svg"
   id="svg18"
   version="1.1"
   class="iconLeft"
   viewBox="0 0 300 300"
   data-v-fde0c5aa="">
  <metadata
     id="metadata22">
    <rdf:RDF>
      <cc:Work
         rdf:about="">
        <dc:format>image/svg+xml</dc:format>
        <dc:type
           rdf:resource="http://purl.org/dc/dcmitype/StillImage" />
      </cc:Work>
    </rdf:RDF>
  </metadata>
  <!---->
  <defs
     id="defs2"
     data-v-fde0c5aa="">
    <!---->
  </defs>
  <rect
     id="rect4"
     class="logo-background-square"
     height="300px"
     width="300px"
     y="0"
     x="0"
     fill="transparent"
     data-v-fde0c5aa="" />
  <defs
     id="defs6"
     data-v-fde0c5aa="">
    <!---->
  </defs>
  <g
     transform="matrix(3.3625729462639637,0,0,3.3625729462639637,105.11988237070364,131.43859674937775)"
     fill="#8E36DE"
     id="e89bcddb-e5de-4852-aabc-97e6b140a249"
     data-v-fde0c5aa="">
    <path
       id="path8"
       d="M8.25 10.64L2.31 10.64L0.46 10.68L0.46 10.20L1.32 10.04L1.43 8.20L1.43 3.82L1.32 1.98L0.46 1.83L0.46 1.35L2.31 1.38L7.80 1.38L8.22 3.15L7.73 3.35L7.30 2.61L7.30 2.61Q7.21 2.56 6.89 2.50L6.89 2.50L6.89 2.50Q6.57 2.44 6.10 2.38L6.10 2.38L6.10 2.38Q5.15 2.28 4.11 2.28L4.11 2.28L3.28 2.28L3.23 3.03L3.23 3.03Q3.23 3.28 3.21 3.94L3.21 3.94L3.21 3.94Q3.18 4.61 3.18 4.77L3.18 4.77L3.18 5.11L3.69 5.11L6.15 5.02L6.43 4.41L6.93 4.41L6.86 5.58L6.86 5.58Q6.86 5.78 6.88 6.05L6.88 6.05L6.88 6.05Q6.90 6.31 6.95 6.74L6.95 6.74L6.45 6.74L6.14 6.06L3.94 5.97L3.18 5.97L3.18 7.26L3.18 7.26Q3.18 7.72 3.20 8.21L3.20 8.21L3.20 8.21Q3.22 8.70 3.23 9.00L3.23 9.00L3.28 9.75L4.36 9.75L4.36 9.75Q5.31 9.75 6.43 9.63L6.43 9.63L6.43 9.63Q7.54 9.52 7.71 9.45L7.71 9.45L8.22 8.51L8.69 8.69L8.25 10.64ZM16.48 5.43L16.48 7.94L16.48 7.94Q16.48 8.35 16.49 8.72L16.49 8.72L16.49 8.72Q16.50 9.08 16.55 9.53L16.55 9.53L16.55 9.53Q16.60 9.98 16.62 10.04L16.62 10.04L17.37 10.20L17.37 10.68L15.67 10.64L14.86 10.68L14.86 10.20L14.85 10.04L14.85 6.43L14.85 6.43Q14.85 5.40 14.54 4.90L14.54 4.90L14.54 4.90Q14.26 4.40 13.51 4.40L13.51 4.40L13.51 4.40Q12.76 4.40 12.30 5.04L12.30 5.04L12.30 5.04Q11.88 5.67 11.88 6.73L11.88 6.73L11.88 7.94L11.88 7.94Q11.88 8.42 11.89 8.75L11.89 8.75L11.89 8.75Q11.90 9.08 11.95 9.39L11.95 9.39L12.02 10.04L12.77 10.20L12.77 10.68L11.07 10.64L9.35 10.68L9.35 10.20L10.10 10.04L10.18 9.39L10.18 9.39Q10.20 9.09 10.22 8.70L10.22 8.70L10.22 8.70Q10.25 8.32 10.25 7.94L10.25 7.94L10.25 6.40L10.25 6.22L10.25 6.06L10.25 6.06Q10.25 5.81 10.23 5.55L10.23 5.55L10.23 5.55Q10.22 5.28 10.19 5.03L10.19 5.03L10.12 4.19L9.23 4.02L9.23 3.54L9.23 3.54Q9.54 3.54 9.79 3.50L9.79 3.50L9.79 3.50Q10.16 3.43 10.34 3.41L10.34 3.41L10.34 3.41Q10.84 3.32 10.96 3.30L10.96 3.30L10.96 3.30Q11.08 3.28 11.45 3.17L11.45 3.17L11.94 3.17L11.88 4.48L11.88 4.48Q12.42 3.84 13.03 3.53L13.03 3.53L13.03 3.53Q13.65 3.22 14.36 3.22L14.36 3.22L14.36 3.22Q15.32 3.22 15.90 3.82L15.90 3.82L15.90 3.82Q16.48 4.43 16.48 5.43L16.48 5.43ZM20.53 7.08L20.53 7.94L20.53 7.94Q20.53 8.42 20.54 8.75L20.54 8.75L20.54 8.75Q20.55 9.08 20.61 9.54L20.61 9.54L20.61 9.54Q20.67 10.00 20.70 10.04L20.70 10.04L21.59 10.20L21.59 10.68L19.72 10.64L18.00 10.68L18.00 10.20L18.75 10.04L18.83 9.39L18.83 9.39Q18.85 9.09 18.87 8.70L18.87 8.70L18.87 8.70Q18.90 8.32 18.90 7.94L18.90 7.94L18.90 6.40L18.90 6.22L18.90 6.06L18.90 6.06Q18.90 5.81 18.89 5.55L18.89 5.55L18.89 5.55Q18.87 5.28 18.84 5.03L18.84 5.03L18.77 4.19L17.88 4.02L17.88 3.54L17.88 3.54Q18.17 3.54 18.41 3.50L18.41 3.50L18.41 3.50Q18.75 3.43 18.92 3.41L18.92 3.41L18.92 3.41Q19.27 3.35 19.46 3.31L19.46 3.31L19.46 3.31Q19.65 3.26 19.97 3.17L19.97 3.17L20.39 3.17L20.34 5.24L20.34 5.24Q20.67 4.24 21.38 3.72L21.38 3.72L21.38 3.72Q21.71 3.48 22.05 3.35L22.05 3.35L22.05 3.35Q22.39 3.22 22.75 3.22L22.75 3.22L22.75 3.22Q22.89 3.22 23.03 3.24L23.03 3.24L23.03 3.24Q23.16 3.26 23.32 3.31L23.32 3.31L23.32 3.31Q23.47 3.35 23.57 3.43L23.57 3.43L23.15 4.48L22.92 5.27L22.92 5.27Q22.45 5.16 22.44 5.05L22.44 5.05L22.44 5.05Q22.44 4.91 22.46 4.84L22.46 4.84L22.46 4.84Q22.46 4.55 22.37 4.52L22.37 4.52L22.37 4.52Q22.28 4.48 22.13 4.48L22.13 4.48L22.13 4.48Q21.48 4.48 21.01 5.23L21.01 5.23L21.01 5.23Q20.53 5.98 20.53 7.08L20.53 7.08ZM31.28 7.03L31.28 7.03L31.28 7.03Q31.28 8.75 30.20 9.79L30.20 9.79L30.20 9.79Q29.13 10.84 27.36 10.84L27.36 10.84L27.36 10.84Q25.61 10.84 24.53 9.79L24.53 9.79L24.53 9.79Q23.46 8.75 23.46 7.03L23.46 7.03L23.46 7.03Q23.46 5.33 24.54 4.27L24.54 4.27L24.54 4.27Q25.62 3.22 27.36 3.22L27.36 3.22L27.36 3.22Q29.13 3.22 30.20 4.27L30.20 4.27L30.20 4.27Q31.28 5.31 31.28 7.03ZM29.54 7.03L29.54 7.03L29.54 7.03Q29.54 5.71 28.95 4.90L28.95 4.90L28.95 4.90Q28.36 4.09 27.36 4.09L27.36 4.09L27.36 4.09Q26.37 4.09 25.78 4.89L25.78 4.89L25.78 4.89Q25.20 5.70 25.20 7.03L25.20 7.03L25.20 7.03Q25.20 8.33 25.79 9.15L25.79 9.15L25.79 9.15Q26.38 9.97 27.36 9.97L27.36 9.97L27.36 9.97Q28.33 9.97 28.94 9.17L28.94 9.17L28.94 9.17Q29.54 8.36 29.54 7.03ZM31.77 1.22L30.88 1.05L30.88 0.56L33.05 0.20L33.67 0.20L33.56 1.25L33.54 2.12L33.54 7.94L33.54 7.94Q33.54 8.35 33.55 8.72L33.55 8.72L33.55 8.72Q33.56 9.08 33.61 9.53L33.61 9.53L33.61 9.53Q33.66 9.98 33.68 10.04L33.68 10.04L34.43 10.20L34.43 10.68L32.72 10.64L31.00 10.68L31.00 10.20L31.74 10.04L31.74 10.04Q31.77 10.02 31.79 9.84L31.79 9.84L31.79 9.84Q31.82 9.66 31.82 9.39L31.82 9.39L31.82 9.39Q31.85 9.09 31.87 8.70L31.87 8.70L31.87 8.70Q31.90 8.32 31.90 7.94L31.90 7.94L31.90 3.42L31.90 3.42Q31.90 3.13 31.88 2.78L31.88 2.78L31.88 2.78Q31.86 2.42 31.85 1.99L31.85 1.99L31.85 1.99Q31.85 1.73 31.82 1.53L31.82 1.53L31.82 1.53Q31.80 1.32 31.77 1.22L31.77 1.22ZM35.83 1.22L34.95 1.05L34.95 0.56L37.11 0.20L37.73 0.20L37.63 1.25L37.60 2.12L37.60 7.94L37.60 7.94Q37.60 8.35 37.62 8.72L37.62 8.72L37.62 8.72Q37.63 9.08 37.67 9.53L37.67 9.53L37.67 9.53Q37.72 9.98 37.75 10.04L37.75 10.04L38.50 10.20L38.50 10.68L36.78 10.64L35.07 10.68L35.07 10.20L35.80 10.04L35.80 10.04Q35.83 10.02 35.86 9.84L35.86 9.84L35.86 9.84Q35.89 9.66 35.89 9.39L35.89 9.39L35.89 9.39Q35.91 9.09 35.94 8.70L35.94 8.70L35.94 8.70Q35.96 8.32 35.96 7.94L35.96 7.94L35.96 3.42L35.96 3.42Q35.96 3.13 35.94 2.78L35.94 2.78L35.94 2.78Q35.92 2.42 35.91 1.99L35.91 1.99L35.91 1.99Q35.91 1.73 35.89 1.53L35.89 1.53L35.89 1.53Q35.86 1.32 35.83 1.22L35.83 1.22ZM43.64 10.68L43.64 9.48L43.64 9.48Q43.18 10.20 42.61 10.52L42.61 10.52L42.61 10.52Q42.05 10.84 41.43 10.84L41.43 10.84L41.43 10.84Q40.06 10.84 39.22 9.88L39.22 9.88L39.22 9.88Q38.38 8.92 38.38 7.39L38.38 7.39L38.38 7.39Q38.38 5.54 39.49 4.38L39.49 4.38L39.49 4.38Q40.59 3.22 42.36 3.22L42.36 3.22L42.36 3.22Q42.71 3.22 42.99 3.28L42.99 3.28L43.53 3.35L43.53 3.42L43.49 1.99L43.49 1.99Q43.49 1.68 43.47 1.52L43.47 1.52L43.47 1.52Q43.44 1.36 43.39 1.22L43.39 1.22L42.51 1.05L42.51 0.56L44.68 0.20L45.29 0.20L45.19 1.25L45.16 2.12L45.16 7.98L45.16 7.98Q45.16 8.38 45.18 8.75L45.18 8.75L45.18 8.75Q45.19 9.11 45.21 9.33L45.21 9.33L45.21 9.33Q45.21 9.78 45.31 10.04L45.31 10.04L45.31 10.04Q45.42 10.04 45.47 10.06L45.47 10.06L45.47 10.06Q45.53 10.07 45.68 10.10L45.68 10.10L46.06 10.20L46.06 10.68L44.86 10.64L43.64 10.68ZM43.55 6.84L43.55 6.84L43.55 4.48L43.55 4.48Q43.43 4.40 43.10 4.28L43.10 4.28L43.10 4.28Q42.77 4.17 42.21 4.17L42.21 4.17L42.21 4.17Q41.17 4.17 40.65 4.85L40.65 4.85L40.65 4.85Q40.13 5.53 40.13 6.85L40.13 6.85L40.13 6.85Q40.13 8.15 40.59 8.90L40.59 8.90L40.59 8.90Q41.06 9.65 41.96 9.65L41.96 9.65L41.96 9.65Q42.79 9.65 43.17 8.92L43.17 8.92L43.17 8.92Q43.55 8.19 43.55 6.84Z" />
  </g>
  <defs
     id="defs11"
     data-v-fde0c5aa="">
    <!---->
  </defs>
  <g
     transform="matrix(1.6770833110638927,0,0,1.6770833110638927,40,123.16666702297772)"
     fill="#8E36DE"
     stroke="none"
     id="676a7552-cda4-4d00-8e9f-9bce07fda45f"
     data-v-fde0c5aa="">
    <path
       id="path13"
       d="M31 1v30H1V1h30m1-1H0v32h32V0z" />
    <path
       id="path15"
       d="M24.12 1v24.608L7.88 9.368V1h16.24m1-1H6.88v9.783l18.24 18.239V0z" />
  </g>
  <!---->
</svg>
